<svg xmlns="http://www.w3.org/2000/svg" width="1200" height="720" viewBox="0 0 1200 720">
  <defs>
    <linearGradient id="bg" x1="0" x2="1" y1="0" y2="1">
      <stop offset="0%" stop-color="#f8f4ec"/>
      <stop offset="100%" stop-color="#efe6d7"/>
    </linearGradient>
    <linearGradient id="card" x1="0" x2="1" y1="0" y2="1">
      <stop offset="0%" stop-color="#ffffff"/>
      <stop offset="100%" stop-color="#fff8ef"/>
    </linearGradient>
  </defs>
  <rect width="1200" height="720" fill="url(#bg)"/>
  <circle cx="110" cy="90" r="120" fill="#d94f3018"/>
  <circle cx="1080" cy="150" r="150" fill="#2f6f6816"/>
  <rect x="52" y="40" width="1096" height="76" rx="24" fill="#ffffffc9" stroke="#00000012"/>
  <rect x="86" y="63" width="230" height="20" rx="10" fill="#10212e"/>
  <rect x="912" y="56" width="110" height="32" rx="16" fill="#2f6f6818"/>
  <rect x="1032" y="56" width="96" height="32" rx="16" fill="#ffffff" stroke="#00000010"/>
  <rect x="52" y="140" width="1096" height="160" rx="32" fill="url(#card)" stroke="#00000010"/>
  <rect x="84" y="176" width="220" height="16" rx="8" fill="#d94f30"/>
  <rect x="84" y="210" width="480" height="24" rx="12" fill="#10212e" opacity="0.92"/>
  <rect x="84" y="250" width="340" height="14" rx="7" fill="#334155" opacity="0.55"/>
  <rect x="820" y="184" width="254" height="92" rx="24" fill="#10212e"/>
  <rect x="844" y="208" width="92" height="10" rx="5" fill="#e7dccb"/>
  <rect x="844" y="228" width="126" height="24" rx="12" fill="#ffffff"/>
  <rect x="52" y="328" width="340" height="120" rx="28" fill="url(#card)" stroke="#00000010"/>
  <rect x="414" y="328" width="340" height="120" rx="28" fill="url(#card)" stroke="#00000010"/>
  <rect x="776" y="328" width="372" height="120" rx="28" fill="url(#card)" stroke="#00000010"/>
  <rect x="82" y="356" width="96" height="12" rx="6" fill="#2f6f68"/>
  <rect x="82" y="382" width="180" height="24" rx="12" fill="#10212e" opacity="0.9"/>
  <rect x="444" y="356" width="120" height="12" rx="6" fill="#2f6f68"/>
  <rect x="444" y="382" width="180" height="24" rx="12" fill="#10212e" opacity="0.9"/>
  <rect x="806" y="356" width="120" height="12" rx="6" fill="#2f6f68"/>
  <rect x="806" y="382" width="210" height="24" rx="12" fill="#10212e" opacity="0.9"/>
  <rect x="52" y="474" width="360" height="188" rx="30" fill="url(#card)" stroke="#00000010"/>
  <rect x="432" y="474" width="360" height="188" rx="30" fill="url(#card)" stroke="#00000010"/>
  <rect x="812" y="474" width="336" height="188" rx="30" fill="url(#card)" stroke="#00000010"/>
  <rect x="82" y="510" width="92" height="12" rx="6" fill="#d94f30"/>
  <rect x="82" y="540" width="240" height="22" rx="11" fill="#10212e" opacity="0.9"/>
  <rect x="82" y="574" width="180" height="12" rx="6" fill="#334155" opacity="0.5"/>
  <rect x="82" y="598" width="200" height="12" rx="6" fill="#334155" opacity="0.5"/>
  <rect x="462" y="510" width="92" height="12" rx="6" fill="#d94f30"/>
  <rect x="462" y="540" width="240" height="22" rx="11" fill="#10212e" opacity="0.9"/>
  <rect x="462" y="574" width="180" height="12" rx="6" fill="#334155" opacity="0.5"/>
  <rect x="462" y="598" width="200" height="12" rx="6" fill="#334155" opacity="0.5"/>
  <rect x="842" y="510" width="92" height="12" rx="6" fill="#d94f30"/>
  <rect x="842" y="540" width="210" height="22" rx="11" fill="#10212e" opacity="0.9"/>
  <rect x="842" y="574" width="170" height="12" rx="6" fill="#334155" opacity="0.5"/>
  <rect x="842" y="598" width="150" height="12" rx="6" fill="#334155" opacity="0.5"/>
</svg>
