<svg xmlns="http://www.w3.org/2000/svg" width="1200" height="720" viewBox="0 0 1200 720">
  <defs>
    <linearGradient id="bg2" x1="0" x2="1" y1="0" y2="1">
      <stop offset="0%" stop-color="#f8f4ec"/>
      <stop offset="100%" stop-color="#f1eadf"/>
    </linearGradient>
  </defs>
  <rect width="1200" height="720" fill="url(#bg2)"/>
  <rect x="56" y="40" width="1088" height="640" rx="36" fill="#ffffffc9" stroke="#00000010"/>
  <rect x="92" y="76" width="180" height="14" rx="7" fill="#d94f30"/>
  <rect x="92" y="120" width="560" height="44" rx="22" fill="#10212e"/>
  <rect x="92" y="184" width="220" height="16" rx="8" fill="#334155" opacity="0.5"/>
  <rect x="92" y="236" width="260" height="36" rx="18" fill="#10212e"/>
  <rect x="360" y="236" width="220" height="36" rx="18" fill="#e7dccb"/>
  <rect x="92" y="304" width="620" height="220" rx="28" fill="#fff8ef" stroke="#00000010"/>
  <rect x="122" y="336" width="110" height="12" rx="6" fill="#2f6f68"/>
  <rect x="122" y="368" width="540" height="16" rx="8" fill="#334155" opacity="0.5"/>
  <rect x="122" y="398" width="500" height="16" rx="8" fill="#334155" opacity="0.5"/>
  <rect x="122" y="428" width="460" height="16" rx="8" fill="#334155" opacity="0.5"/>
  <rect x="122" y="472" width="180" height="24" rx="12" fill="#d94f30"/>
  <rect x="736" y="120" width="328" height="404" rx="32" fill="#10212e"/>
  <rect x="770" y="154" width="92" height="12" rx="6" fill="#e7dccb"/>
  <rect x="770" y="188" width="220" height="26" rx="13" fill="#ffffff"/>
  <rect x="770" y="232" width="220" height="26" rx="13" fill="#ffffff" opacity="0.88"/>
  <rect x="770" y="276" width="220" height="26" rx="13" fill="#ffffff" opacity="0.76"/>
  <rect x="770" y="340" width="220" height="90" rx="22" fill="#ffffff" opacity="0.12" stroke="#ffffff12"/>
  <rect x="770" y="352" width="160" height="12" rx="6" fill="#e7dccb"/>
  <rect x="770" y="380" width="180" height="12" rx="6" fill="#ffffff" opacity="0.75"/>
  <rect x="770" y="404" width="140" height="12" rx="6" fill="#ffffff" opacity="0.75"/>
</svg>
